# xmcd
#
# Track frame offsets:
#	150
#	19860
#	35685
#	55832
#	76160
#	95740
#	116610
#	137242
#	156607
#	176375
#	197895
#
# Disc length: 2922 seconds
#
# Revision: 1
# Processed by: cddbd v1.5.1PL0 Copyright (c) Steve Scherf et al.
# Submitted via: CDex 1.50Beta5
#
DISCID=970b680b
DTITLE=穴井夕子 - SIN
DYEAR=1994
DGENRE=Pop
TTITLE0=DANCING DOLL
TTITLE1=STOP!
TTITLE2=Yesterday Train Table
TTITLE3=Chu!
TTITLE4=赤い罪 青い純愛
TTITLE5=WILD CHILD
TTITLE6=HEART TALK
TTITLE7=CRIME CRACKERS
TTITLE8=HEAVEN2
TTITLE9=月に吠える
TTITLE10=X’mas Card
EXTD=
EXTT0=
EXTT1=
EXTT2=
EXTT3=
EXTT4=
EXTT5=
EXTT6=
EXTT7=
EXTT8=
EXTT9=
EXTT10=
PLAYORDER=
